<svg width="196" height="158" viewBox="0 0 196 158" fill="none" xmlns="http://www.w3.org/2000/svg">
<g clip-path="url(#clip0_2452_6671)">
<path d="M162.809 62.006C163.821 58.0261 164.355 53.8443 164.355 49.5472C164.355 22.178 142.749 0 116.086 0H48.3477H0C0 2.68212 0 155.534 0 158H147.989C174.455 158 195.92 135.966 195.92 108.799C195.92 86.9382 182.027 68.4229 162.823 62.006H162.809ZM147.792 118.691H39.7364V39.2945H115.89C121.34 39.2945 125.92 43.6926 126.046 49.2876C126.173 55.0411 121.649 59.7709 116.072 59.7709L59.5956 60.04V99.0133L147.975 98.8924C153.369 98.8924 157.738 103.464 157.612 109.03C157.485 114.437 153.06 118.691 147.792 118.691Z" fill="#FE7501"/>
</g>
<defs>
<clipPath id="clip0_2452_6671">
<rect width="196" height="158" fill="white"/>
</clipPath>
</defs>
</svg>
