<svg width="325" height="164" viewBox="0 0 325 164" fill="none" xmlns="http://www.w3.org/2000/svg">
<path d="M193.283 29.4332C193.763 27.544 194.016 25.559 194.016 23.5192C194.016 10.5275 183.761 0 171.104 0H138.95H116C116 1.27316 116 73.8295 116 75H186.248C198.811 75 209 64.5409 209 51.6451C209 41.2681 202.405 32.4792 193.29 29.4332H193.283ZM186.155 56.3407H134.862V18.6525H171.011C173.598 18.6525 175.772 20.7402 175.832 23.396C175.892 26.1271 173.745 28.3723 171.098 28.3723L144.289 28.5V47L186.241 46.9426C188.802 46.9426 190.876 49.1124 190.816 51.7546C190.756 54.3214 188.655 56.3407 186.155 56.3407Z" fill="#FE7501"/>
<path d="M14.0768 93.277C21.713 93.277 27.2213 95.9448 27.2213 102.831C27.2213 106.918 25.0134 109.717 21.7416 110.857C25.3795 112.049 27.9992 114.944 27.9992 119.453C27.9992 126.493 23.0537 130.093 15 130.093H0V93.2827H14.0768V93.277ZM4.18129 97.1875V109.198H13.9453C18.956 109.198 22.8284 108.007 22.8284 103.139C22.8284 98.2706 18.9331 97.1875 13.9167 97.1875H4.17557H4.18129ZM4.18129 113.08V126H14.5C19.9568 126 23.6063 124.185 23.6063 119.317C23.6063 114.448 20.0199 113.08 14.5687 113.08H4.18129ZM45.857 99.4872C36.9739 99.4872 30.333 106.077 30.333 114.776C30.333 123.475 36.9739 130.093 45.857 130.093C54.7401 130.093 61.4152 123.503 61.4152 114.776C61.4152 106.048 54.7458 99.4872 45.857 99.4872ZM45.857 125.743C39.7137 125.743 35.0691 121.143 35.0691 114.776C35.0691 108.408 39.7137 103.837 45.857 103.837C52.0002 103.837 56.6448 108.437 56.6448 114.776C56.6448 121.115 51.9659 125.743 45.857 125.743ZM89.7119 100.08V104.464C87.3724 101.482 83.786 99.4929 78.924 99.4929C70.6301 99.4929 64.178 105.957 64.178 114.781C64.178 123.606 70.6301 130.099 78.924 130.099C83.786 130.099 87.3724 128.143 89.7119 125.128V130.093H94.3565V99.4929H89.7119V100.08ZM79.4846 125.743C73.2155 125.743 68.9141 120.864 68.9141 114.776C68.9141 108.688 73.1526 103.837 79.4846 103.837C85.8166 103.837 89.9922 108.557 89.9922 114.776C89.9922 120.995 85.6278 125.743 79.4846 125.743ZM118 100.5L116.916 105.638C115.48 104.863 113.518 104.458 111.802 104.458C107.186 104.458 103.886 108.061 103.886 113.624V130.093H99.2414V99.4929H103.857V104.8C105.882 101.785 109.379 99.4929 113 99.4929C115.122 99.4929 116.5 100 118 100.5ZM149.834 115.013L149.972 85H145.327V104.051C142.553 101.349 138.686 99.7242 134.276 99.7242C125.393 99.7242 118.752 106.314 118.752 115.013C118.752 123.712 125.393 130.33 134.276 130.33C143.159 130.33 149.834 123.74 149.834 115.013ZM134.276 125.98C128.133 125.98 123.488 121.38 123.488 115.013C123.488 108.645 128.133 104.074 134.276 104.074C140.419 104.074 145.064 108.674 145.064 115.013C145.064 121.352 140.385 125.98 134.276 125.98ZM159.65 99.5V130H154.971V99.5H159.65ZM184.143 100.5L183.022 104.638C181.586 103.863 179.624 103.458 177.908 103.458C173.292 103.458 169.992 107.061 169.992 112.624L170 130H165.347V99.5H169.963V103.8C171.988 100.785 174.879 99.5 178.5 99.5C180.622 99.5 182.587 99.7874 184.143 100.5ZM214.23 114.679C214.167 105.729 208.367 99.4872 200.359 99.4872C191.939 99.4872 185.704 104.792 185.704 113.804C185.704 122.817 191.91 130.093 200.639 130.093C204.975 130.093 209.088 129.004 212.765 125.493L210.272 122.323C207.743 124.62 204.569 126.023 200.919 126.023C195.588 126.023 191.133 122.762 190.475 116.423H214.138C214.201 115.893 214.23 115.272 214.23 114.685V114.679ZM190.538 112.661C191.287 107.348 194.811 103.62 200.267 103.62C205.289 103.62 208.904 107.16 209.494 112.661H190.538ZM241.771 122.295L244.671 125.464C241.989 128.48 238.093 130.093 233.729 130.093C224.657 130.093 218.451 123.503 218.451 114.776C218.451 106.048 224.657 99.4872 233.729 99.4872C238.093 99.4872 242.023 101.1 244.671 104.116L241.68 107.257C239.466 105.114 236.818 103.837 233.603 103.837C227.677 103.837 223.193 108.437 223.193 114.776C223.193 121.115 227.683 125.743 233.603 125.743C236.812 125.743 239.684 124.313 241.771 122.295ZM268.718 127.174C266.505 128.85 263.576 130.093 259.955 130.093C253.595 130.093 249.825 126.616 249.825 119.216V90.7257H254.47V100.08H267.219V104.276H254.47V119.125C254.47 123.725 256.901 125.743 260.333 125.743C262.609 125.743 264.823 124.905 266.539 123.663L268.724 127.174H268.718ZM286.01 99.4929C277.127 99.4929 270.486 106.083 270.486 114.781C270.486 123.48 277.127 130.099 286.01 130.099C294.893 130.099 301.568 123.509 301.568 114.781C301.568 106.054 294.898 99.4929 286.01 99.4929ZM286.01 125.749C279.866 125.749 275.222 121.149 275.222 114.781C275.222 108.414 279.866 103.842 286.01 103.842C292.153 103.842 296.797 108.443 296.797 114.781C296.797 121.12 292.119 125.749 286.01 125.749ZM325 100.5L323.956 104.644C322.52 103.868 320.558 103.464 318.842 103.464C314.226 103.464 310.926 107.066 310.926 112.63V130H306.281V99.6729H310.897V103.806C312.922 100.79 315.879 99.5 319.5 99.5C321.622 99.5 323.417 99.7874 324.973 100.5H325Z" fill="black"/>
<path d="M245.297 156.124C243.851 156.124 242.701 155.425 242.048 154.259V156H240.664V144.342H242.048V149.192C242.701 148.026 243.851 147.326 245.297 147.326C247.582 147.326 249.245 149.223 249.245 151.725C249.245 154.228 247.582 156.124 245.297 156.124ZM242.048 151.725C242.048 153.56 243.323 154.927 245.017 154.927C246.68 154.927 247.877 153.56 247.877 151.725C247.877 149.891 246.68 148.523 245.017 148.523C243.323 148.523 242.048 149.891 242.048 151.725ZM249.71 147.451H251.187L253.55 153.979L255.819 147.451H257.249V147.513L253.845 157.104C252.959 159.591 251.871 159.964 249.943 159.451L250.239 158.316C251.451 158.58 252.057 158.347 252.555 156.917L252.897 155.907L249.71 147.513V147.451Z" fill="black"/>
<path d="M290.94 144C290.524 144 290.172 144.143 289.885 144.428C289.597 144.713 289.453 145.066 289.453 145.487C289.453 145.898 289.597 146.248 289.885 146.535C290.172 146.823 290.524 146.967 290.94 146.967C291.356 146.967 291.707 146.823 291.992 146.535C292.277 146.248 292.42 145.898 292.42 145.487C292.42 145.066 292.277 144.713 291.992 144.428C291.707 144.143 291.356 144 290.94 144Z" fill="#3805AB"/>
<path d="M289.715 156.206H292.15V147.915H289.715V156.206Z" fill="#3805AB"/>
<path d="M300.103 148.177C299.703 147.92 299.225 147.791 298.67 147.791C298.213 147.791 297.784 147.87 297.383 148.026C296.982 148.183 296.639 148.415 296.354 148.724C296.274 148.81 296.202 148.903 296.137 149.001H296.096V147.914H293.738V156.206H296.173V151.336C296.173 151.002 296.236 150.723 296.362 150.5C296.488 150.276 296.659 150.107 296.875 149.991C297.09 149.876 297.332 149.818 297.599 149.818C298.005 149.818 298.326 149.942 298.562 150.192C298.798 150.441 298.917 150.815 298.917 151.313V156.206H301.352V150.781C301.352 150.196 301.244 149.679 301.028 149.232C300.812 148.785 300.504 148.434 300.103 148.177Z" fill="#3805AB"/>
<path d="M307.416 151.88L310.824 147.907H307.95L305.267 151.174V144.339H302.832V156.206H305.267V152.662L308.127 156.206H311.002L307.416 151.88Z" fill="#3805AB"/>
<path d="M265.859 147.057C266.092 146.964 266.363 146.917 266.666 146.917C267.198 146.917 267.676 147.058 268.088 147.336C268.5 147.615 268.814 148.006 269.022 148.499L269.082 148.642L271.334 147.662L271.284 147.526C271.057 146.914 270.715 146.382 270.266 145.945C269.819 145.511 269.281 145.17 268.668 144.931C268.057 144.694 267.383 144.574 266.666 144.574C265.853 144.574 265.121 144.721 264.491 145.01C263.855 145.303 263.353 145.717 263 146.241C262.644 146.767 262.463 147.385 262.463 148.078C262.463 148.867 262.713 149.554 263.207 150.118C263.695 150.675 264.426 151.11 265.38 151.408L267.673 152.133C268 152.235 268.241 152.37 268.389 152.535C268.532 152.694 268.602 152.88 268.602 153.104C268.602 153.313 268.545 153.488 268.429 153.637C268.31 153.792 268.141 153.915 267.926 154.005C267.705 154.097 267.435 154.144 267.121 154.144C266.527 154.144 265.978 153.975 265.488 153.642C264.995 153.307 264.603 152.84 264.324 152.254L264.26 152.121L262 153.096L262.048 153.231C262.284 153.893 262.648 154.476 263.127 154.963C263.605 155.448 264.183 155.828 264.844 156.092C265.502 156.354 266.216 156.488 266.964 156.488C267.81 156.488 268.563 156.338 269.203 156.043C269.848 155.746 270.362 155.328 270.732 154.8C271.104 154.268 271.293 153.651 271.293 152.969C271.293 152.179 271.045 151.5 270.556 150.95C270.074 150.408 269.34 149.982 268.376 149.683L266.131 148.988C265.803 148.887 265.556 148.746 265.398 148.571C265.245 148.403 265.171 148.212 265.171 147.987C265.171 147.777 265.228 147.597 265.345 147.436C265.463 147.274 265.636 147.147 265.859 147.057Z" fill="#3805AB"/>
<path d="M282.205 146.4C281.673 145.874 281.053 145.463 280.344 145.168C279.635 144.872 278.867 144.725 278.04 144.725C277.223 144.725 276.459 144.872 275.747 145.168C275.036 145.463 274.413 145.874 273.879 146.4C273.344 146.927 272.927 147.541 272.627 148.242C272.326 148.943 272.176 149.702 272.176 150.519C272.176 151.331 272.326 152.09 272.627 152.796C272.927 153.503 273.346 154.121 273.883 154.65C274.419 155.179 275.043 155.591 275.755 155.886C276.467 156.182 277.231 156.329 278.048 156.329C278.72 156.329 279.355 156.229 279.952 156.031C280.842 156.665 281.929 157.04 283.103 157.04C283.147 157.04 283.846 157.037 283.889 157.036V154.592C283.857 154.594 283.47 154.595 283.25 154.595C283.229 154.595 283.083 154.597 282.981 154.593C282.949 154.592 282.917 154.59 282.884 154.588C281.331 154.475 280.101 153.175 280.101 151.593V151.145H277.657V151.593C277.657 152.464 277.863 153.288 278.229 154.019C278.161 154.023 278.093 154.026 278.025 154.026C277.557 154.026 277.122 153.936 276.718 153.756C276.315 153.576 275.962 153.328 275.659 153.012C275.356 152.696 275.119 152.325 274.95 151.899C274.78 151.472 274.696 151.012 274.696 150.519C274.696 150.021 274.78 149.56 274.95 149.136C275.119 148.712 275.357 148.342 275.663 148.026C275.968 147.71 276.323 147.465 276.726 147.29C277.129 147.116 277.562 147.029 278.025 147.029C278.492 147.029 278.929 147.116 279.335 147.29C279.74 147.465 280.095 147.71 280.398 148.026C280.701 148.342 280.939 148.712 281.111 149.136C281.283 149.56 281.369 150.021 281.369 150.519C281.369 151.007 281.284 151.465 281.115 151.891C281.092 151.948 281.065 152.001 281.041 152.055C281.252 152.949 281.989 153.551 282.922 153.777C283.125 153.472 283.3 153.147 283.446 152.8C283.741 152.096 283.889 151.336 283.889 150.519C283.889 149.708 283.741 148.95 283.446 148.246C283.15 147.542 282.737 146.927 282.205 146.4Z" fill="#3805AB"/>
<path d="M288.107 144.339H285.672V156.206H288.107V144.339Z" fill="#3805AB"/>
</svg>
