<svg preserveAspectRatio="none" width="100%" height="100%" overflow="visible" style="display: block;" viewBox="0 0 61 61" fill="none" xmlns="http://www.w3.org/2000/svg">
<g id="Logoegged 1" clip-path="url(#clip0_0_4)">
<path id="Vector" fill-rule="evenodd" clip-rule="evenodd" d="M13.1679 60.9756L13.1422 55.4439C13.1422 54.8607 12.6701 54.3888 12.0876 54.3888H9.03883V56.4989H11.0435V58.7746H8.95623L7.48601 60.9756L7.47278 56.5008H8.33405L8.33462 54.386H4.44124L20.5438 30.4896L0.00221532 0.00491341L16.0666 0.0132284C18.5621 0.0132284 20.7796 1.29846 22.0713 3.22641L30.4974 15.7178L34.2044 10.2394L39.0453 3.10263C40.3444 1.22741 42.5098 0 44.9641 0L60.9729 0.000755909L60.9799 3.30068C60.9799 5.13981 59.5006 6.6314 57.6779 6.6314L46.6075 6.63197L45.8677 7.76489H60.9911L60.9939 11.0573C60.9939 12.8969 59.5252 14.3942 57.7025 14.3942H41.363L40.5928 15.5383L61.0003 15.5336V18.808C61.0003 20.6463 59.4906 22.1559 57.663 22.1559L36.1358 22.158L35.3789 23.2971L45.2454 23.2985L40.4614 30.5013L60.9835 60.9769L44.9957 60.9733C42.5119 60.9733 40.2382 59.7299 38.9445 57.8165L30.4995 45.264L19.9836 60.849L17.8738 57.6872L20.0801 54.3858L18.131 54.3871C17.7785 54.3871 17.4663 54.5602 17.2746 54.8265L16.615 55.839L15.9414 54.8174C15.7496 54.5538 15.4397 54.383 15.0893 54.383L13.1471 54.3809L15.359 57.6878L13.1679 60.9756Z" fill="var(--fill-0, #00A65D)"/>
<path id="Vector_2" fill-rule="evenodd" clip-rule="evenodd" d="M17.9445 60.9756H15.3186C15.2475 60.9909 15.1738 60.9987 15.0989 60.9987H13.1532L11.0428 60.9979L9.64065 60.9756C9.56845 60.9917 9.49342 61 9.41688 61L7.47245 60.9958C5.36417 60.9958 5.36417 60.9989 5.36417 60.9989L0 60.9764L3.01548 56.5008H5.36417V60.9764C5.36417 60.9987 5.36417 60.9958 7.47245 60.9958L9.41688 61C9.49342 61 9.56845 60.9917 9.64065 60.9756C9.90771 60.9186 10.137 60.7602 10.2865 60.5427L11.0436 59.3999L11.0428 60.9756L13.1532 60.9987H15.0989C15.1738 60.9987 15.2475 60.9909 15.3186 60.9756C15.5875 60.9193 15.8188 60.7602 15.9691 60.5419L16.6149 59.5479L17.2751 60.5466C17.431 60.767 17.6693 60.9248 17.9445 60.9756Z" fill="var(--fill-0, #00A65D)"/>
</g>
<defs>
<clipPath id="clip0_0_4">
<rect width="61" height="61" fill="white"/>
</clipPath>
</defs>
</svg>
