<svg preserveAspectRatio="none" width="100%" height="100%" overflow="visible" style="display: block;" viewBox="0 0 114 42" fill="none" xmlns="http://www.w3.org/2000/svg">
<g id="layer1">
<path id="path1507-2" d="M0 22.0032V37.7053C0 40.0846 1.91692 42 4.29808 42H109.702C112.083 42 114 40.0846 114 37.7053V22.0032H0Z" fill="var(--fill-0, #080860)"/>
<path id="rect1398" d="M4.29808 0C1.91692 0 1.9016e-06 1.91543 1.9016e-06 4.29474V19.9958H18.1219C25.3027 20.0315 27.6271 15.3918 35.465 15.3918C43.3042 15.3918 45.8019 19.9958 52.8092 19.9958H114V4.29474C114 1.91543 112.083 0 109.702 0H4.29808Z" fill="var(--fill-0, #4E8FF7)"/>
<g id="flowRoot1515-9">
<path id="path987" d="M100.425 7.58923V7.75679L97.6259 15.3227H95.7039V15.2583L98.0386 9.12304H93.7045V6.30032H95.5104V7.58923L100.425 7.58923Z" fill="var(--fill-0, white)"/>
<path id="path989" d="M92.9466 15.2454V15.3227H90.9472L87.9933 11.456C87.6321 11.7052 87.3613 12.1004 87.1807 12.6418C87.0001 13.1745 86.9098 13.9049 86.9098 14.8329L86.9227 15.3227H85.1168V14.936C85.1168 13.6213 85.2759 12.6031 85.5941 11.8813C85.9123 11.1509 86.4067 10.6096 87.0775 10.2573L85.1039 7.66656V7.58923H87.1033L90.0572 11.456C90.4184 11.2068 90.6892 10.8158 90.8698 10.2831C91.0504 9.74171 91.1407 9.00703 91.1407 8.07901L91.1278 7.58923H92.9337V7.9759C92.9337 9.29059 92.7746 10.3131 92.4564 11.0435C92.1382 11.7653 91.6438 12.3024 90.973 12.6547L92.9466 15.2454Z" fill="var(--fill-0, white)"/>
<path id="path991" d="M84.0106 15.3227H82.2047V7.58923H84.0106V15.3227Z" fill="var(--fill-0, white)"/>
<path id="path993" d="M77.7189 7.47323C78.424 7.47323 79.0475 7.64078 79.5892 7.9759C80.131 8.31102 80.5481 8.77932 80.8405 9.38081C81.1414 9.97372 81.2919 10.6525 81.2919 11.4173C81.2919 12.6718 81.0125 13.6514 80.4535 14.356C79.9031 15.052 79.1421 15.4 78.1703 15.4C77.6286 15.4 77.0223 15.2754 76.3516 15.0263L76.7514 13.5569C77.2416 13.7545 77.6587 13.8533 78.0027 13.8533C78.5272 13.8533 78.9228 13.6428 79.1894 13.2218C79.4646 12.8007 79.6021 12.1992 79.6021 11.4173C79.6021 10.6955 79.4302 10.1241 79.0862 9.70304C78.7508 9.27341 78.3208 9.05859 77.7963 9.05859C77.2803 9.05859 76.846 9.282 76.4935 9.72882C76.1495 10.1671 75.8485 10.8545 75.5905 11.7911L74.636 15.3227H72.8559L73.8491 11.7653L72.4302 7.58923H74.1974L74.8166 9.61282C75.1003 8.94258 75.4916 8.41842 75.9904 8.04034C76.4978 7.66226 77.0739 7.47323 77.7189 7.47323Z" fill="var(--fill-0, white)"/>
<path id="path995" d="M71.9174 7.58923V11.9586L70.1115 12.2422V7.58923H71.9174Z" fill="var(--fill-0, white)"/>
</g>
<g id="flowRoot1523-5">
<path id="path998" d="M69.0571 26.9975H70.7598V36.6644H69.0571V26.9975Z" fill="var(--fill-0, white)"/>
<path id="path1000" d="M75.1682 29.4465C75.8734 29.4465 76.4882 29.6226 77.0128 29.9749C77.546 30.3186 77.9544 30.7784 78.2382 31.3541C78.522 31.9212 78.6639 32.5399 78.6639 33.2101C78.6639 33.3906 78.651 33.5796 78.6252 33.7772H73.2591C73.3795 34.2412 73.6074 34.6107 73.9428 34.8857C74.2868 35.1521 74.6952 35.2853 75.1682 35.2853C75.4864 35.2853 75.7788 35.2165 76.0454 35.079C76.3205 34.933 76.5527 34.731 76.7419 34.4732L78.0447 35.3626C77.3482 36.3164 76.3893 36.7933 75.1682 36.7933C74.4975 36.7933 73.8912 36.6343 73.3494 36.3164C72.8077 35.9899 72.382 35.5473 72.0724 34.9888C71.7714 34.4303 71.6209 33.8073 71.6209 33.1199C71.6209 32.4239 71.7714 31.7966 72.0724 31.2381C72.382 30.6795 72.8077 30.2413 73.3494 29.9234C73.8912 29.6054 74.4975 29.4465 75.1682 29.4465ZM75.1682 30.9803C74.6694 30.9803 74.2438 31.1264 73.8912 31.4185C73.5472 31.7107 73.3279 32.1059 73.2333 32.6043H77.0257C76.9397 32.1403 76.7376 31.7536 76.4194 31.4443C76.1012 31.135 75.6842 30.9803 75.1682 30.9803Z" fill="var(--fill-0, white)"/>
<path id="path1002" d="M85.8714 29.5754L85.8456 33.8159C85.8456 34.4002 85.7123 34.9201 85.4458 35.3755C85.1792 35.8223 84.8051 36.1703 84.3235 36.4195C83.842 36.6687 83.283 36.7933 82.6466 36.7933C82.0189 36.7933 81.4599 36.6687 80.9698 36.4195C80.4882 36.1703 80.1098 35.8223 79.8346 35.3755C79.568 34.9201 79.4347 34.4002 79.4347 33.8159V29.5754H81.1374V33.7514C81.1374 34.2069 81.275 34.5764 81.5502 34.8599C81.834 35.1435 82.1995 35.2853 82.6466 35.2853C83.1024 35.2853 83.4679 35.1435 83.7431 34.8599C84.0268 34.5764 84.1687 34.2069 84.1687 33.7514V29.5754H85.8714Z" fill="var(--fill-0, white)"/>
<path id="path1004" d="M95.1041 29.4594C95.8523 29.4594 96.45 29.6957 96.8971 30.1683C97.3443 30.6323 97.5679 31.281 97.5679 32.1145V36.6644H95.8652V32.3336C95.8652 31.8954 95.7405 31.5431 95.4911 31.2767C95.2417 31.0018 94.9236 30.8643 94.5366 30.8643C94.1324 30.8643 93.8013 31.0018 93.5433 31.2767C93.294 31.5431 93.1693 31.8954 93.1693 32.3336V36.6644H91.4666V32.3336C91.4666 31.8954 91.3419 31.5431 91.0925 31.2767C90.8431 31.0018 90.5249 30.8643 90.138 30.8643C89.7338 30.8643 89.4027 31.0018 89.1447 31.2767C88.8954 31.5431 88.7707 31.8954 88.7707 32.3336V36.6644H87.068V29.5754H88.7707V30.3874C89.2264 29.7687 89.8843 29.4594 90.7442 29.4594C91.2258 29.4594 91.6386 29.5668 91.9826 29.7816C92.3265 29.9878 92.5888 30.2886 92.7694 30.6838C93.0016 30.2886 93.3155 29.9878 93.711 29.7816C94.1152 29.5668 94.5796 29.4594 95.1041 29.4594Z" fill="var(--fill-0, white)"/>
<path id="path1006" d="M99.59 28.7118C99.2976 28.7118 99.0482 28.6087 98.8418 28.4025C98.6354 28.1962 98.5322 27.947 98.5322 27.6549C98.5322 27.3541 98.6354 27.1049 98.8418 26.9073C99.0482 26.7011 99.2976 26.598 99.59 26.598C99.891 26.598 100.14 26.7011 100.338 26.9073C100.545 27.1049 100.648 27.3541 100.648 27.6549C100.648 27.947 100.545 28.1962 100.338 28.4025C100.14 28.6087 99.891 28.7118 99.59 28.7118ZM98.7386 29.5754H100.441V36.6644H98.7386V29.5754Z" fill="var(--fill-0, white)"/>
</g>
</g>
</svg>
