<?xml version="1.0" encoding="UTF-8"?>
<svg width="148px" height="33px" viewBox="0 0 148 33" version="1.1" xmlns="http://www.w3.org/2000/svg" xmlns:xlink="http://www.w3.org/1999/xlink">
    <title>2FA95F49-7346-4786-84C4-B96D7D017ECE@1.5x</title>
    <defs>
        <polygon id="path-1" points="0 33 148 33 148 0 0 0"></polygon>
    </defs>
    <g id="Desktop" stroke="none" stroke-width="1" fill="none" fill-rule="evenodd">
        <g id="1.0_Main-Page" transform="translate(-1495.000000, -5543.000000)">
            <g id="Footer" transform="translate(0.000000, 5439.000000)">
                <g id="Asset-1" transform="translate(1495.000000, 104.000000)">
                    <path d="M96.643871,9.83306449 C96.643871,8.48841757 95.5598231,7.39137764 94.2312514,7.39137764 L80.6642209,7.39137764 C79.160779,7.39137764 77.9720053,8.59453485 77.9720053,10.1162913 L77.9720053,22.2084664 L77.9720053,32.3623316 L83.3694353,32.3623316 L94.4061215,32.3623316 C95.7351838,32.3623316 96.8189864,31.3004168 96.8189864,29.9560172 C96.8189864,28.6111229 95.7351838,27.514083 94.4061215,27.514083 L83.3694353,27.514083 L83.3694353,22.3123575 L92.6574199,22.3123575 C93.9867275,22.3123575 95.0705301,21.2504426 95.0705301,19.9060431 C95.0705301,18.5611488 93.9867275,17.4641089 92.6574199,17.4641089 L83.321855,17.4641089 L83.321855,12.2396263 L94.2312514,12.2396263 C95.5598231,12.2396263 96.643871,11.1779588 96.643871,9.83306449" id="Fill-1" fill="#0F3D66"></path>
                    <path d="M70.1130753,15.6948692 C70.1130753,17.782337 68.6096334,19.1979761 65.9870715,19.1979761 L60.5320054,19.1979761 L60.5320054,12.0853975 L65.8825909,12.0853975 C68.5049075,12.0853975 70.1130753,13.2883074 70.1130753,15.6243717 L70.1130753,15.6948692 Z M75.5678962,15.4116424 L75.5678962,15.3411449 C75.5678962,13.0055753 74.8335886,11.0591025 73.4696995,9.67908312 C71.8615317,8.05120944 69.4486668,7.16640407 66.3368118,7.16640407 L57.8397897,7.16640407 C56.3363478,7.16640407 55.1478193,8.37005599 55.1478193,9.89131768 L55.1478193,29.4248124 L55.1478193,29.4267913 L55.1478193,32.3622079 L60.5450042,32.3622079 L60.5450042,24.010605 L64.4083349,24.010605 L69.8099343,32.3622079 L76.1940442,32.3622079 L70.6739842,22.9815889 L70.6727579,22.9491848 C73.6450602,21.7106552 75.5678962,19.3043408 75.5678962,15.4116424 L75.5678962,15.4116424 Z" id="Fill-3" fill="#0F3D66"></path>
                    <path d="M47.7473533,19.6230389 C47.7473533,23.8692142 44.7402242,27.3374435 40.4042781,27.3374435 C36.0685773,27.3374435 32.9915491,23.798222 32.9915491,19.5520467 L32.9915491,19.4815492 C32.9915491,15.2348792 35.998433,11.7666499 40.3348696,11.7666499 C44.6703252,11.7666499 47.7473533,15.3056241 47.7473533,19.5520467 L47.7473533,19.6230389 Z M53.3770444,19.5520467 L53.3770444,19.4815492 C53.3770444,12.4392207 47.9572956,6.7420339 40.4042781,6.7420339 C32.8517511,6.7420339 27.3618581,12.5099656 27.3618581,19.5520467 L27.3618581,19.6230389 C27.3618581,26.6648727 32.7818521,32.3623069 40.3348696,32.3623069 C47.8871514,32.3623069 53.3770444,26.5941278 53.3770444,19.5520467 L53.3770444,19.5520467 Z" id="Fill-5" fill="#0F3D66"></path>
                    <line x1="103.15581" y1="7.16650301" x2="103.15581" y2="32.3623069" id="Stroke-7" stroke="#63C7C9" stroke-width="1.2608865" stroke-linecap="round"></line>
                    <path d="M116.829553,14.659496 L116.829553,18.7424139 L115.184351,18.7424139 L115.184351,14.5855355 C115.184351,14.4334093 115.142657,14.3287762 115.059759,14.2718835 C114.976861,14.2147434 114.884644,14.186297 114.782861,14.186297 L113.131773,14.186297 L113.131773,17.3111911 C113.131773,17.6228643 113.090324,17.8739343 113.007426,18.0639065 C112.924528,18.254126 112.815142,18.401305 112.679514,18.5059381 C112.543885,18.6105713 112.390107,18.6798319 112.218671,18.7139676 C112.046989,18.7481032 111.874572,18.7634395 111.701418,18.7597291 L110.610258,18.7424139 L110.610258,17.3339482 L111.362224,17.3339482 C111.392391,17.3339482 111.425256,17.3196014 111.461064,17.291155 C111.496872,17.2627087 111.514776,17.2181839 111.514776,17.1573335 L111.458366,12.7721421 L115.184351,12.7721421 C115.236837,12.7721421 115.310415,12.7778313 115.404594,12.7892099 C115.499019,12.8005884 115.599821,12.8213666 115.707245,12.8517919 C115.814669,12.8822171 115.925035,12.9269892 116.037855,12.9858608 C116.15092,13.0449797 116.254664,13.1199297 116.349089,13.2112054 C116.461909,13.3252382 116.551429,13.4469391 116.617403,13.5760608 C116.683378,13.7054299 116.731449,13.8355411 116.761616,13.9666417 C116.791783,14.0977423 116.810668,14.223401 116.818271,14.343123 C116.825629,14.4628451 116.829553,14.5682203 116.829553,14.659496" id="Fill-9" fill="#63C7C9"></path>
                    <mask id="mask-2" fill="white">
                        <use xlink:href="#path-1"></use>
                    </mask>
                    <g id="Clip-12"></g>
                    <polygon id="Fill-11" fill="#63C7C9" mask="url(#mask-2)" points="118.056489 16.1993344 119.701691 16.1993344 119.701691 12.7721668 118.056489 12.7721668"></polygon>
                    <path d="M125.293637,17.3282837 L126.124822,17.3282837 L126.124822,18.7424387 L120.702621,18.7424387 L120.702621,17.3282837 L123.846114,17.3282837 L123.846114,16.5585006 L123.846114,14.5855602 C123.846114,14.4294763 123.81423,14.3241011 123.750218,14.2689399 C123.68596,14.2137787 123.603062,14.1863218 123.501279,14.1863218 L120.75903,14.1863218 L120.75903,12.7721668 L124.157103,12.7721668 C124.190949,12.7721668 124.242944,12.7738983 124.312598,12.7778561 C124.382252,12.7815665 124.462452,12.7959133 124.552953,12.8204019 C124.643453,12.8451379 124.739595,12.8822418 124.841378,12.9317138 C124.943161,12.9811857 125.041019,13.0514358 125.135199,13.1427115 C125.2257,13.2339872 125.298297,13.3289733 125.35299,13.4276698 C125.407437,13.5266136 125.449131,13.6282785 125.477336,13.7329116 C125.505541,13.8375447 125.524426,13.9439093 125.533746,14.0522528 C125.543311,14.1605964 125.547971,14.2679504 125.547971,14.3745624 L125.547971,16.330435 C125.547971,16.4367996 125.544292,16.534754 125.536689,16.6240509 C125.529086,16.7133477 125.516087,16.7979447 125.497202,16.8778418 C125.478317,16.9574916 125.452075,17.0336784 125.417984,17.1059074 C125.384138,17.1781364 125.342689,17.2523443 125.293637,17.3282837" id="Fill-13" fill="#63C7C9" mask="url(#mask-2)"></path>
                    <path d="M116.829308,24.4248829 L116.829308,28.5078008 L115.184106,28.5078008 L115.184106,24.3509224 C115.184106,24.1987962 115.142412,24.0941631 115.059514,24.0372703 C114.976616,23.9801303 114.884399,23.9516839 114.782616,23.9516839 L113.131527,23.9516839 L113.131527,27.076578 C113.131527,27.3882512 113.090079,27.6393212 113.007181,27.8292934 C112.924283,28.0195129 112.814897,28.1666919 112.679269,28.271325 C112.54364,28.3759581 112.389862,28.4452188 112.218426,28.4793545 C112.046744,28.5134901 111.874326,28.5288264 111.701173,28.525116 L110.610013,28.5078008 L110.610013,27.0993351 L111.361979,27.0993351 C111.392146,27.0993351 111.425011,27.0849883 111.460818,27.0565419 C111.496626,27.0280956 111.51453,26.9835708 111.51453,26.9227204 L111.458121,22.537529 L115.184106,22.537529 C115.236591,22.537529 115.310169,22.5432182 115.404349,22.5545968 C115.498774,22.5659753 115.599576,22.5867535 115.707,22.6171788 C115.814423,22.647604 115.92479,22.6923761 116.03761,22.7512477 C116.150674,22.8103666 116.254419,22.8853166 116.348844,22.9765923 C116.461664,23.0906251 116.551183,23.212326 116.617158,23.3414477 C116.683133,23.4708168 116.731204,23.600928 116.761371,23.7320286 C116.791538,23.8631292 116.810423,23.9887879 116.818026,24.1085099 C116.825384,24.228232 116.829308,24.3336072 116.829308,24.4248829" id="Fill-14" fill="#63C7C9" mask="url(#mask-2)"></path>
                    <polygon id="Fill-15" fill="#63C7C9" mask="url(#mask-2)" points="118.095731 28.5079492 119.740933 28.5079492 119.740933 22.53743 118.095731 22.53743"></polygon>
                    <path d="M126.237543,22.5374547 L126.237543,25.9020403 C126.237543,26.2555172 126.192416,26.5929158 126.101915,26.9139886 C126.011414,27.2353087 125.868182,27.5155672 125.67222,27.7552586 C125.547873,27.9034271 125.410037,28.0258701 125.259448,28.1230824 C125.108613,28.2200474 124.95508,28.2969762 124.798605,28.3538689 C124.642129,28.411009 124.487615,28.4508339 124.335064,28.4738383 C124.182267,28.4965954 124.041979,28.507974 123.913708,28.507974 L120.753291,28.507974 L120.753291,27.0935716 L122.013926,27.0935716 L120.894561,22.5374547 L122.596418,22.5374547 L123.670655,27.0935716 L123.789361,27.0935716 C123.879862,27.0935716 123.97208,27.0794721 124.066504,27.0510258 C124.160684,27.0223321 124.24628,26.974839 124.323782,26.9082993 C124.401039,26.8417596 124.463089,26.755431 124.510425,26.6490664 C124.557269,26.5424544 124.581059,26.4093749 124.581059,26.249828 L124.581059,22.5374547 L126.237543,22.5374547 Z" id="Fill-16" fill="#63C7C9" mask="url(#mask-2)"></path>
                    <path d="M127.521061,30.8400558 L129.166263,30.8400558 L129.166263,24.9323659 L127.521061,24.9323659 L127.521061,30.8400558 Z M133.242724,22.7427385 L132.813029,26.3695253 C132.764223,26.7761845 132.683042,27.1165514 132.569977,27.3901311 C132.456912,27.6639582 132.310002,27.8833662 132.129,28.0488498 C131.947998,28.2143334 131.734132,28.3320765 131.487401,28.402574 C131.240424,28.4728242 130.9623,28.5079492 130.653272,28.5079492 L130.036935,28.5079492 L130.036935,27.1051728 L130.387656,27.1051728 C130.617464,27.1051728 130.793561,27.0519905 130.916191,26.9453785 C131.038575,26.8390139 131.114851,26.643105 131.145018,26.3581468 L131.399598,23.951585 L127.521061,23.951585 L127.521061,22.53743 L133.242724,22.53743 L133.242724,22.7427385 Z" id="Fill-17" fill="#63C7C9" mask="url(#mask-2)"></path>
                    <path d="M141.249055,25.9132705 C141.218888,26.1868502 141.171798,26.4502882 141.107786,26.7030897 C141.043528,26.9558913 140.957932,27.1886567 140.850508,27.4016333 C140.743085,27.61461 140.61089,27.8045821 140.454659,27.9717973 C140.298183,28.1392597 140.112522,28.2703603 139.897674,28.3653464 C139.641378,28.4756688 139.33137,28.5486399 138.96765,28.5847544 C138.603929,28.6208689 138.214702,28.6391735 137.799968,28.6391735 L137.720995,28.6391735 C137.554954,28.6391735 137.386215,28.6381841 137.215024,28.6362052 C137.043342,28.6342263 136.877546,28.6295265 136.717392,28.6218583 C136.557237,28.6141902 136.403459,28.6010801 136.256549,28.5820334 C136.109393,28.5629868 135.979651,28.5382508 135.866341,28.5078256 C135.666699,28.4509328 135.49232,28.3690568 135.343447,28.2626922 C135.194329,28.1563275 135.067285,28.0222586 134.961823,27.8607328 C134.856361,27.699207 134.771256,27.507998 134.707489,27.2876005 C134.643231,27.0672031 134.596141,26.8104438 134.565974,26.5178174 L134.158843,22.5375537 L135.877868,22.5375537 L136.115279,25.018076 L136.335768,25.018076 C136.463793,25.018076 136.570236,25.0037291 136.655096,24.9752828 C136.739956,24.9465891 136.805931,24.9047853 136.853021,24.8498714 C136.90011,24.7947103 136.933956,24.729902 136.954803,24.6559415 C136.975405,24.5817336 136.987668,24.4991155 136.991592,24.4078398 L137.070811,22.5375537 L138.670885,22.5375537 L138.529616,24.6816669 C138.510486,24.9780037 138.464377,25.2253634 138.391044,25.4230037 C138.317466,25.620644 138.192138,25.7745017 138.014816,25.8848241 C137.920636,25.9417168 137.811495,25.9894572 137.687149,26.0273033 C137.562557,26.0653966 137.429871,26.0958219 137.288356,26.118579 C137.147087,26.141336 137.000912,26.1566723 136.850077,26.1640931 C136.699488,26.1717613 136.550615,26.175719 136.403459,26.175719 L136.211176,26.175719 L136.228344,26.3694016 C136.239626,26.5024811 136.259492,26.6137929 136.287697,26.7030897 C136.315902,26.7923866 136.352691,26.865605 136.397819,26.9227451 C136.443192,26.9796378 136.495922,27.022431 136.556256,27.0508774 C136.616345,27.0793237 136.686244,27.1013387 136.765463,27.1164277 C136.878528,27.1354744 137.020778,27.1515527 137.192215,27.1649102 C137.363896,27.1782676 137.526749,27.1849463 137.681508,27.1849463 L137.737917,27.1849463 C137.817136,27.1849463 137.907392,27.1829674 138.00942,27.179257 C138.111203,27.1755466 138.214702,27.1688679 138.320409,27.1592209 C138.425871,27.1498212 138.530352,27.1374532 138.634096,27.1221169 C138.737596,27.107028 138.83104,27.0879813 138.913938,27.0652242 C139.038284,27.0310886 139.140067,26.9796378 139.219286,26.9111192 C139.298505,26.8428479 139.362518,26.7592404 139.41157,26.6602965 C139.460622,26.5616 139.497165,26.4485567 139.521691,26.3209191 C139.546217,26.1937763 139.568045,26.0540181 139.586685,25.9018919 L139.954329,22.5375537 L141.6167,22.5375537 L141.249055,25.9132705 Z" id="Fill-18" fill="#63C7C9" mask="url(#mask-2)"></path>
                    <path d="M142.741877,28.5079492 L144.387079,28.5079492 L144.387079,25.1663681 L142.741877,25.1663681 L142.741877,28.5079492 Z M148,24.4247839 L148,28.5079492 L146.354553,28.5079492 L146.354553,24.3508234 C146.354553,24.1949868 146.322669,24.0893643 146.258656,24.0342031 C146.194398,23.9792893 146.1115,23.951585 146.009718,23.951585 L142.741632,23.951585 L142.741632,22.53743 L146.411208,22.53743 C146.463939,22.53743 146.533592,22.5431193 146.620414,22.5544978 C146.706991,22.5658764 146.801171,22.5869019 146.902953,22.6173272 C147.004981,22.6477524 147.109462,22.6925245 147.216886,22.7511487 C147.32431,22.8102677 147.425111,22.8852176 147.519291,22.9764933 C147.632601,23.0905261 147.721876,23.2122271 147.78785,23.3415961 C147.853825,23.4707179 147.901896,23.600829 147.932063,23.732177 C147.96223,23.8632776 147.981115,23.9886889 147.988718,24.108411 C147.996321,24.2283804 148,24.3337556 148,24.4247839 L148,24.4247839 Z" id="Fill-19" fill="#63C7C9" mask="url(#mask-2)"></path>
                    <path d="M0.0317611303,10.6764619 L0.0317611303,13.0753555 L0.0317611303,18.1514223 L0.0317611303,22.9890345 L0.0317611303,30.5255875 L0.0317611303,30.5975691 L0.0317611303,30.599548 L0.0317611303,32.3622327 L0.03200639,32.3622327 L6.47669536,32.3622327 L6.54880171,32.3622327 L6.54880171,23.1213719 L6.54880171,19.7807802 C6.54880171,19.4438764 6.45903666,19.1131565 6.28907169,18.8234984 L0.692490745,9.28357982 C0.508055455,8.96918574 0.0317611303,9.10152314 0.0317611303,9.46712066 L0.0317611303,10.6764619 Z" id="Fill-20" fill="#0F3D66" mask="url(#mask-2)"></path>
                    <path d="M19.1869111,23.1214461 L19.1869111,32.3623069 L19.2590174,32.3623069 L25.7032159,32.3623069 L25.7032159,30.6001169 L25.7039517,30.5976433 L25.7039517,30.5256617 L25.7039517,12.1997766 C25.7039517,11.7149518 25.0760868,11.5341319 24.8249409,11.9467277 C23.1481004,14.7015719 21.2100583,17.886327 19.4616019,20.7596564 C19.2815813,21.0552511 19.1869111,21.3948759 19.1869111,21.7421688 L19.1869111,23.1214461 Z" id="Fill-21" fill="#0F3D66" mask="url(#mask-2)"></path>
                    <path d="M13.5547675,26.2401067 C11.8068016,26.2401067 11.1683907,25.2672413 10.6550621,24.4853376 L10.5991429,24.3995038 L1.31949715,8.5818453 C1.06148395,8.14203989 1.37468058,7.58498602 1.88016081,7.58498602 L7.21038973,7.58498602 C7.44068858,7.58498602 7.65406452,7.70792375 7.77154391,7.90853241 L13.5182238,17.7272253 L23.4460909,1.30724614 C23.8804458,0.841715327 25.1898873,-0.874218381 27.5235333,0.561951592 C29.8331439,1.98278527 28.3002708,4.45613414 28.1513981,4.69211522 C28.0027708,4.92735423 16.1677643,24.3782309 16.1677643,24.3782309 C16.1677643,24.3782309 15.1187885,26.2401067 13.5547675,26.2401067" id="Fill-22" fill="#63C7C9" mask="url(#mask-2)"></path>
                    <path d="M96.6121099,9.83299028 C96.6121099,8.48834337 95.528062,7.39130344 94.1994903,7.39130344 L80.6324598,7.39130344 C79.1290179,7.39130344 77.9402441,8.59446064 77.9402441,10.116217 L77.9402441,22.2083922 L77.9402441,32.3622574 L83.3376742,32.3622574 L94.3743604,32.3622574 C95.7034227,32.3622574 96.7872253,31.3003426 96.7872253,29.955943 C96.7872253,28.6110487 95.7034227,27.5140088 94.3743604,27.5140088 L83.3376742,27.5140088 L83.3376742,22.3122833 L92.6256588,22.3122833 C93.9549663,22.3122833 95.0387689,21.2503684 95.0387689,19.9059689 C95.0387689,18.5610746 93.9549663,17.4640347 92.6256588,17.4640347 L83.2900938,17.4640347 L83.2900938,12.2395521 L94.1994903,12.2395521 C95.528062,12.2395521 96.6121099,11.1778846 96.6121099,9.83299028" id="Fill-23" fill="#0F3D66" mask="url(#mask-2)"></path>
                    <path d="M70.0813142,15.694795 C70.0813142,17.7822628 68.5778723,19.1979019 65.9553104,19.1979019 L60.5002443,19.1979019 L60.5002443,12.0853233 L65.8508297,12.0853233 C68.4731464,12.0853233 70.0813142,13.2882332 70.0813142,15.6242975 L70.0813142,15.694795 Z M75.536135,15.4115682 L75.536135,15.3410707 C75.536135,13.0055011 74.8018275,11.0590283 73.4379384,9.67900891 C71.8297705,8.05113523 69.4169057,7.16632986 66.3050507,7.16632986 L57.8080286,7.16632986 C56.3045867,7.16632986 55.1160582,8.36998179 55.1160582,9.89124347 L55.1160582,29.4247382 L55.1160582,29.4267171 L55.1160582,32.3621337 L60.513243,32.3621337 L60.513243,24.0105308 L64.3765737,24.0105308 L69.7781732,32.3621337 L76.162283,32.3621337 L70.6422231,22.9815147 L70.6409968,22.9491106 C73.613299,21.710581 75.536135,19.3042666 75.536135,15.4115682 L75.536135,15.4115682 Z" id="Fill-24" fill="#0F3D66" mask="url(#mask-2)"></path>
                    <path d="M47.7155922,19.6229647 C47.7155922,23.86914 44.7084631,27.3373693 40.372517,27.3373693 C36.0368161,27.3373693 32.959788,23.7981478 32.959788,19.5519725 L32.959788,19.481475 C32.959788,15.234805 35.9666719,11.7665757 40.3031085,11.7665757 C44.6385641,11.7665757 47.7155922,15.3055499 47.7155922,19.5519725 L47.7155922,19.6229647 Z M53.3452832,19.5519725 L53.3452832,19.481475 C53.3452832,12.4391465 47.9255345,6.74195969 40.372517,6.74195969 C32.81999,6.74195969 27.330097,12.5098914 27.330097,19.5519725 L27.330097,19.6229647 C27.330097,26.6647985 32.750091,32.3622327 40.3031085,32.3622327 C47.8553902,32.3622327 53.3452832,26.5940536 53.3452832,19.5519725 L53.3452832,19.5519725 Z" id="Fill-25" fill="#0F3D66" mask="url(#mask-2)"></path>
                    <line x1="103.124049" y1="7.1664288" x2="103.124049" y2="32.3622327" id="Stroke-26" stroke="#63C7C9" stroke-width="1.2608865" stroke-linecap="round" mask="url(#mask-2)"></line>
                    <path d="M0,10.6763629 L0,13.0752565 L0,18.1513234 L0,22.9889355 L0,30.5254885 L0,30.5974702 L0,30.5994491 L0,32.3621337 L0.000245259694,32.3621337 L6.44493423,32.3621337 L6.51704058,32.3621337 L6.51704058,23.1212729 L6.51704058,19.7806812 C6.51704058,19.4437774 6.42727553,19.1130576 6.25731056,18.8233995 L0.660729614,9.28348087 C0.476294325,8.96908679 0,9.10142419 0,9.46702172 L0,10.6763629 Z" id="Fill-27" fill="#0F3D66" mask="url(#mask-2)"></path>
                    <path d="M19.15515,23.1213471 L19.15515,32.3622079 L19.2272563,32.3622079 L25.6714548,32.3622079 L25.6714548,30.600018 L25.6721905,30.5975444 L25.6721905,30.5255627 L25.6721905,12.1996777 C25.6721905,11.7148528 25.0443257,11.5340329 24.7931798,11.9466288 C23.1163393,14.7014729 21.1782972,17.8862281 19.4298408,20.7595575 C19.2498202,21.0551522 19.15515,21.394777 19.15515,21.7420699 L19.15515,23.1213471 Z" id="Fill-28" fill="#0F3D66" mask="url(#mask-2)"></path>
                </g>
            </g>
        </g>
    </g>
</svg>