<?xml version="1.0" encoding="UTF-8" standalone="no"?>
<!-- Created with Inkscape (http://www.inkscape.org/) -->

<svg
   xmlns:dc="http://purl.org/dc/elements/1.1/"
   xmlns:cc="http://creativecommons.org/ns#"
   xmlns:rdf="http://www.w3.org/1999/02/22-rdf-syntax-ns#"
   xmlns:svg="http://www.w3.org/2000/svg"
   xmlns="http://www.w3.org/2000/svg"
   xmlns:sodipodi="http://sodipodi.sourceforge.net/DTD/sodipodi-0.dtd"
   xmlns:inkscape="http://www.inkscape.org/namespaces/inkscape"
   id="svg2"
   version="1.1"
   inkscape:version="0.91 r13725"
   xml:space="preserve"
   width="92"
   height="119"
   viewBox="0 0 92 119"
   sodipodi:docname="logo-english.svg"><metadata
     id="metadata8"><rdf:RDF><cc:Work
         rdf:about=""><dc:format>image/svg+xml</dc:format><dc:type
           rdf:resource="http://purl.org/dc/dcmitype/StillImage" /><dc:title></dc:title></cc:Work></rdf:RDF></metadata><defs
     id="defs6"><clipPath
       clipPathUnits="userSpaceOnUse"
       id="clipPath16"><path
         d="m 0,141.73 141.73,0 L 141.73,0 0,0 0,141.73 Z"
         id="path18"
         inkscape:connector-curvature="0" /></clipPath></defs><sodipodi:namedview
     pagecolor="#ffffff"
     bordercolor="#666666"
     borderopacity="1"
     objecttolerance="10"
     gridtolerance="10"
     guidetolerance="10"
     inkscape:pageopacity="0"
     inkscape:pageshadow="2"
     inkscape:window-width="1366"
     inkscape:window-height="705"
     id="namedview4"
     showgrid="false"
     inkscape:zoom="5.3284412"
     inkscape:cx="2.500948"
     inkscape:cy="134.0556"
     inkscape:window-x="-8"
     inkscape:window-y="-8"
     inkscape:window-maximized="1"
     inkscape:current-layer="g10" /><g
     id="g10"
     inkscape:groupmode="layer"
     inkscape:label="logo-english"
     transform="matrix(1.25,0,0,-1.25,0,118.99999)"><g
       id="g12"
       transform="translate(-34.69092,-17.558567)"><g
         id="g14"
         clip-path="url(#clipPath16)"><g
           id="g20"
           transform="translate(76.4552,68.8134)"><path
             d="m 0,0 c 0,-2.981 -2.946,-5.398 -6.147,-5.398 -3.413,0 -6.19,2.417 -6.19,5.398 0,5.091 5.315,5.23 5.315,9.214 l 0.003,5.93 c -0.042,3.924 -5.231,3.841 -5.231,9.232 0,2.98 2.946,5.397 6.145,5.397 3.418,0 6.192,-2.417 6.192,-5.397 0,-5.09 -5.402,-5.28 -5.402,-9.269 l 0,-5.88 C -5.29,5.287 0,5.397 0,0 m 11.436,12.669 c 6.505,7.265 9.079,12.559 7.613,18.83 -5.207,22.285 -51.952,9.895 -51.952,-2.949 0,-5.987 4.589,-9.873 4.589,-18.066 0,-11.358 -4.271,-15.505 -4.271,-20.469 0,-3.008 1.944,-4.451 4.086,-5.785 20.857,-11.948 49.388,-3.195 52.001,10.178 1.35,6.909 -3.618,13.211 -12.066,18.261"
             style="fill:#20294d;fill-opacity:1;fill-rule:nonzero;stroke:none"
             id="path22"
             inkscape:connector-curvature="0" /></g><g
           id="g24"
           transform="translate(42.001,26.8823)"><path
             d="m 0,0 c 1.961,0 3.169,1.154 3.169,2.847 0,1.637 -1.182,2.712 -3.089,2.712 l -3.464,0 L -3.384,0 0,0 Z m -0.725,8.379 c 1.799,0 2.901,1.047 2.901,2.605 0,1.531 -1.074,2.471 -2.821,2.471 l -2.739,0 0,-5.076 2.659,0 z m -6.15,7.895 6.795,0 c 3.437,0 5.72,-1.772 5.72,-4.726 C 5.64,9.883 4.941,8.514 3.732,7.6 5.586,6.821 6.714,5.184 6.714,2.954 c 0,-3.437 -2.739,-5.801 -6.901,-5.801 l -6.688,0 0,19.121 z"
             style="fill:#20294d;fill-opacity:1;fill-rule:nonzero;stroke:none"
             id="path26"
             inkscape:connector-curvature="0" /></g><g
           id="g28"
           transform="translate(60.9034,32.4409)"><path
             d="M 0,0 C -0.215,2.015 -1.585,3.25 -3.545,3.25 -5.56,3.25 -6.902,1.961 -7.117,0 L 0,0 Z m -10.394,-1.557 c 0,4.538 2.847,7.573 7.009,7.573 4.002,0 6.66,-2.766 6.66,-7.17 0,-0.403 -0.026,-0.832 -0.08,-1.262 l -10.366,0 c 0.215,-2.203 1.558,-3.572 3.599,-3.572 1.424,0 2.524,0.698 3.061,1.826 l 3.33,0 c -0.94,-2.82 -3.33,-4.592 -6.526,-4.592 -4.001,0 -6.687,2.793 -6.687,7.197"
             style="fill:#20294d;fill-opacity:1;fill-rule:nonzero;stroke:none"
             id="path30"
             inkscape:connector-curvature="0" /></g><g
           id="g32"
           transform="translate(65.9473,26.1577)"><path
             d="m 0,0 6.553,9.076 -6.499,0 0,2.848 10.715,0 0,-2.149 -6.553,-9.05 6.5,0 0,-2.847 L 0,-2.122 0,0 Z"
             style="fill:#20294d;fill-opacity:1;fill-rule:nonzero;stroke:none"
             id="path34"
             inkscape:connector-curvature="0" /></g><g
           id="g36"
           transform="translate(88.7178,32.4409)"><path
             d="M 0,0 C -0.215,2.015 -1.585,3.25 -3.545,3.25 -5.56,3.25 -6.902,1.961 -7.117,0 L 0,0 Z m -10.394,-1.557 c 0,4.538 2.847,7.573 7.009,7.573 4.002,0 6.66,-2.766 6.66,-7.17 0,-0.403 -0.026,-0.832 -0.08,-1.262 l -10.366,0 c 0.215,-2.203 1.558,-3.572 3.599,-3.572 1.424,0 2.524,0.698 3.061,1.826 l 3.33,0 c -0.94,-2.82 -3.33,-4.592 -6.526,-4.592 -4.001,0 -6.687,2.793 -6.687,7.197"
             style="fill:#20294d;fill-opacity:1;fill-rule:nonzero;stroke:none"
             id="path38"
             inkscape:connector-curvature="0" /></g><g
           id="g40"
           transform="translate(104.583,31.0718)"><path
             d="m 0,0 c 0,2.686 -1.396,4.432 -3.49,4.432 -2.149,0 -3.519,-1.746 -3.519,-4.459 0,-2.686 1.397,-4.431 3.491,-4.431 C -1.342,-4.458 0,-2.686 0,0 m -0.053,-5.854 c -1.074,-0.994 -2.47,-1.558 -4.109,-1.558 -3.76,0 -6.338,2.9 -6.338,7.251 0,4.485 2.739,7.546 6.768,7.546 1.638,0 3.061,-0.537 4.162,-1.504 l 0.618,1.129 2.363,0 0,-20.223 -3.464,0 0,7.359 z"
             style="fill:#20294d;fill-opacity:1;fill-rule:nonzero;stroke:none"
             id="path42"
             inkscape:connector-curvature="0" /></g></g></g></g></svg>