<?xml version="1.0" encoding="utf-8"?>
<!-- Generator: Adobe Illustrator 16.0.0, SVG Export Plug-In . SVG Version: 6.00 Build 0)  -->
<!DOCTYPE svg PUBLIC "-//W3C//DTD SVG 1.1//EN" "http://www.w3.org/Graphics/SVG/1.1/DTD/svg11.dtd">
<svg version="1.1" id="Layer_1" xmlns="http://www.w3.org/2000/svg" xmlns:xlink="http://www.w3.org/1999/xlink" x="0px" y="0px"
	 width="132px" height="23.125px" viewBox="-1.273 -0.514 132 23.125" enable-background="new -1.273 -0.514 132 23.125"
	 xml:space="preserve">
<g>
	<path fill="none" d="M4.764,9.228H2.581v6.749h5.756v-3.177c0-1.189-0.265-2.116-0.926-2.777C6.881,9.493,6.021,9.228,4.764,9.228z
		"/>
	<path fill="#E42328" d="M128.959,9.493l-8.205-8.205c-0.992-0.992-2.58-0.992-3.573,0l-8.204,8.205
		c-0.993,0.993-0.993,2.581,0,3.574l8.204,8.204c0.993,0.993,2.581,0.993,3.573,0l8.205-8.204
		C129.952,12.073,129.952,10.485,128.959,9.493z"/>
	<path fill="#545453" d="M4.83,6.913H0v11.38h10.983v-5.358c0-2.316-0.529-3.706-1.456-4.633C8.536,7.31,7.08,6.913,4.83,6.913z
		 M8.337,15.977H2.581V9.228h2.184c1.257,0,2.117,0.265,2.646,0.794c0.662,0.662,0.926,1.588,0.926,2.777V15.977z"/>
	<path fill="#545453" d="M24.813,6.845h-4.896V4.001h-2.581v5.228h6.286l-2.779,8.999h2.647l2.845-9.329
		C26.731,7.64,26.136,6.845,24.813,6.845z"/>
	<path fill="#545453" d="M50.551,6.582c-3.176,0-5.161,1.854-5.161,4.168c0,2.117,1.522,3.705,4.235,3.705c0.397,0,0.596,0,0.662,0
		v-2.117c-0.132,0.066-0.198,0.066-0.397,0.066c-1.125,0-1.853-0.794-1.853-1.787c0-1.059,0.86-1.853,2.382-1.853
		c1.985,0,3.309,1.257,3.309,3.705c0,2.646-1.522,3.705-3.97,3.705c-0.993,0-2.448-0.198-3.771-0.662l-0.596,2.053
		c1.324,0.661,3.242,0.927,4.566,0.927c3.97,0,6.551-1.92,6.551-5.955C56.507,8.699,54.257,6.582,50.551,6.582z"/>
	<path fill="#545453" d="M88.465,14.257c0,1.125-0.596,1.854-1.588,1.854c-0.465,0-0.86-0.133-1.125-0.198l-0.529,2.052
		c0.529,0.265,1.189,0.33,1.785,0.33c2.714,0,4.037-1.39,4.037-4.168v-7.28h-2.58V14.257z"/>
	<rect x="12.77" y="6.845" fill="#545453" width="2.647" height="6.154"/>
	<path fill="#545453" d="M35.664,12.272c0,1.258-0.331,2.184-0.86,2.778c-0.331,0.331-0.993,0.662-1.456,0.662L30.9,6.78h-2.845
		l2.646,9.131h-2.646v2.315h4.103c2.25,0,3.705-0.396,4.698-1.39c0.926-0.927,1.389-2.383,1.389-4.565V6.78h-2.58L35.664,12.272
		L35.664,12.272z"/>
	<rect x="40.692" y="6.845" fill="#545453" width="2.647" height="11.381"/>
	<path fill="#545453" d="M62.329,6.913h-4.168v2.381h4.035c1.258,0,2.25,0.266,2.779,0.794c0.596,0.662,0.794,1.588,0.794,2.779
		v5.359h0.065h2.582v-5.359c0-2.183-0.465-3.639-1.392-4.565C66.034,7.31,64.579,6.913,62.329,6.913z"/>
	<path fill="#545453" d="M83.965,6.845h-9.264v2.383h8.006l-2.713,8.999h2.646l2.846-9.329C85.883,7.64,85.29,6.845,83.965,6.845z"
		/>
	<path fill="#545453" d="M101.565,12.867c0-2.183-0.463-3.639-1.389-4.565c-0.992-0.991-2.449-1.389-4.698-1.389h-2.382v2.381h2.25
		c1.322,0,2.184,0.198,2.713,0.729c0.596,0.662,0.859,1.653,0.859,2.845v3.176h-6.021v2.185h0.066h10.322v-2.25h-1.722
		L101.565,12.867L101.565,12.867z"/>
	<rect x="58.293" y="12.205" fill="#545453" width="2.646" height="6.021"/>
	<rect x="74.834" y="12.338" fill="#545453" width="2.646" height="8.999"/>
</g>
</svg>
